<mxfile host="app.diagrams.net" modified="2023-11-09T12:09:40.974Z" agent="Mozilla/5.0 (Macintosh; Intel Mac OS X 10.15; rv:109.0) Gecko/20100101 Firefox/119.0" etag="-IPcRykhTl0JjOZF-lc6" version="22.1.0" type="device">
  <diagram name="Seite-1" id="b0RacwGjqZRm8moZqP2D">
    <mxGraphModel dx="574" dy="329" grid="1" gridSize="10" guides="1" tooltips="1" connect="1" arrows="1" fold="1" page="1" pageScale="1" pageWidth="827" pageHeight="1169" math="0" shadow="0">
      <root>
        <mxCell id="0" />
        <mxCell id="1" parent="0" />
        <mxCell id="6a4DPRetsdT_SdQBjYUN-1" value="&lt;font face=&quot;JetBrainsMono Nerd Font&quot;&gt;DataMiner&lt;/font&gt;" style="swimlane;fontStyle=1;align=center;verticalAlign=top;childLayout=stackLayout;horizontal=1;startSize=26;horizontalStack=0;resizeParent=1;resizeParentMax=0;resizeLast=0;collapsible=1;marginBottom=0;whiteSpace=wrap;html=1;" vertex="1" parent="1">
          <mxGeometry x="20" y="20" width="170" height="96" as="geometry" />
        </mxCell>
        <mxCell id="6a4DPRetsdT_SdQBjYUN-2" value="&lt;div&gt;&lt;br&gt;&lt;/div&gt;&lt;div&gt;&lt;br&gt;&lt;/div&gt;" style="text;strokeColor=none;fillColor=none;align=left;verticalAlign=top;spacingLeft=4;spacingRight=4;overflow=hidden;rotatable=0;points=[[0,0.5],[1,0.5]];portConstraint=eastwest;whiteSpace=wrap;html=1;" vertex="1" parent="6a4DPRetsdT_SdQBjYUN-1">
          <mxGeometry y="26" width="170" height="2" as="geometry" />
        </mxCell>
        <mxCell id="6a4DPRetsdT_SdQBjYUN-3" value="" style="line;strokeWidth=1;fillColor=none;align=left;verticalAlign=middle;spacingTop=-1;spacingLeft=3;spacingRight=3;rotatable=0;labelPosition=right;points=[];portConstraint=eastwest;strokeColor=inherit;" vertex="1" parent="6a4DPRetsdT_SdQBjYUN-1">
          <mxGeometry y="28" width="170" height="8" as="geometry" />
        </mxCell>
        <mxCell id="6a4DPRetsdT_SdQBjYUN-4" value="&lt;div&gt;+ &lt;font color=&quot;#994c00&quot;&gt;mine&lt;/font&gt;&lt;font color=&quot;#00cc00&quot;&gt;(&lt;/font&gt;path&lt;font color=&quot;#00cc00&quot;&gt;)&lt;/font&gt;&lt;/div&gt;&lt;div&gt;+ &lt;font color=&quot;#994c00&quot;&gt;analyzeData&lt;/font&gt;&lt;font color=&quot;#00cc00&quot;&gt;(&lt;/font&gt;data&lt;font color=&quot;#00cc00&quot;&gt;)&lt;/font&gt;&lt;/div&gt;&lt;div&gt;+ &lt;font color=&quot;#994c00&quot;&gt;sendReport&lt;/font&gt;&lt;font color=&quot;#00cc00&quot;&gt;(&lt;/font&gt;analysis&lt;font color=&quot;#00cc00&quot;&gt;)&lt;/font&gt;&lt;/div&gt;" style="text;strokeColor=none;fillColor=none;align=left;verticalAlign=top;spacingLeft=4;spacingRight=4;overflow=hidden;rotatable=0;points=[[0,0.5],[1,0.5]];portConstraint=eastwest;whiteSpace=wrap;html=1;fontFamily=JetBrainsMono Nerd Font;" vertex="1" parent="6a4DPRetsdT_SdQBjYUN-1">
          <mxGeometry y="36" width="170" height="60" as="geometry" />
        </mxCell>
        <mxCell id="6a4DPRetsdT_SdQBjYUN-5" value="&lt;div&gt;&lt;font color=&quot;#3399ff&quot; face=&quot;JetBrainsMono Nerd Font&quot;&gt;dataType&lt;/font&gt;&lt;/div&gt;" style="endArrow=open;html=1;endSize=12;startArrow=diamondThin;startSize=14;startFill=0;edgeStyle=orthogonalEdgeStyle;align=left;verticalAlign=bottom;rounded=0;entryX=0;entryY=0.25;entryDx=0;entryDy=0;" edge="1" parent="1" target="6a4DPRetsdT_SdQBjYUN-6">
          <mxGeometry x="-0.2793" y="-1" relative="1" as="geometry">
            <mxPoint x="190" y="45" as="sourcePoint" />
            <mxPoint x="300" y="50" as="targetPoint" />
            <mxPoint as="offset" />
          </mxGeometry>
        </mxCell>
        <mxCell id="6a4DPRetsdT_SdQBjYUN-6" value="&lt;font face=&quot;JetBrainsMono Nerd Font&quot;&gt;&lt;i&gt;interface DataType&lt;/i&gt;&lt;/font&gt;" style="swimlane;fontStyle=1;align=center;verticalAlign=top;childLayout=stackLayout;horizontal=1;startSize=26;horizontalStack=0;resizeParent=1;resizeParentMax=0;resizeLast=0;collapsible=1;marginBottom=0;whiteSpace=wrap;html=1;" vertex="1" parent="1">
          <mxGeometry x="300" y="20" width="160" height="100" as="geometry" />
        </mxCell>
        <mxCell id="6a4DPRetsdT_SdQBjYUN-8" value="" style="line;strokeWidth=1;fillColor=none;align=left;verticalAlign=middle;spacingTop=-1;spacingLeft=3;spacingRight=3;rotatable=0;labelPosition=right;points=[];portConstraint=eastwest;strokeColor=inherit;" vertex="1" parent="6a4DPRetsdT_SdQBjYUN-6">
          <mxGeometry y="26" width="160" height="8" as="geometry" />
        </mxCell>
        <mxCell id="6a4DPRetsdT_SdQBjYUN-9" value="&lt;div&gt;+ &lt;font color=&quot;#994c00&quot;&gt;openFile&lt;/font&gt;&lt;font color=&quot;#00cc00&quot;&gt;(&lt;/font&gt;path&lt;font color=&quot;#00cc00&quot;&gt;)&lt;/font&gt;&lt;/div&gt;&lt;div&gt;+ &lt;font color=&quot;#994c00&quot;&gt;extractData&lt;/font&gt;&lt;font color=&quot;#00cc00&quot;&gt;(&lt;/font&gt;file&lt;font color=&quot;#00cc00&quot;&gt;)&lt;/font&gt;&lt;/div&gt;&lt;div&gt;+ &lt;font color=&quot;#994c00&quot;&gt;parseData&lt;/font&gt;&lt;font color=&quot;#00cc00&quot;&gt;(&lt;/font&gt;rawData&lt;font color=&quot;#00cc00&quot;&gt;)&lt;/font&gt;&lt;/div&gt;&lt;div&gt;+ &lt;font color=&quot;#994c00&quot;&gt;closeFile&lt;/font&gt;&lt;font color=&quot;#00cc00&quot;&gt;(&lt;/font&gt;path&lt;font color=&quot;#00cc00&quot;&gt;)&lt;/font&gt;&lt;br&gt;&lt;/div&gt;" style="text;strokeColor=none;fillColor=none;align=left;verticalAlign=top;spacingLeft=4;spacingRight=4;overflow=hidden;rotatable=0;points=[[0,0.5],[1,0.5]];portConstraint=eastwest;whiteSpace=wrap;html=1;fontFamily=JetBrainsMono Nerd Font;fontStyle=2;spacingTop=-5;" vertex="1" parent="6a4DPRetsdT_SdQBjYUN-6">
          <mxGeometry y="34" width="160" height="66" as="geometry" />
        </mxCell>
        <mxCell id="6a4DPRetsdT_SdQBjYUN-10" value="&lt;div&gt;&lt;font face=&quot;JetBrainsMono Nerd Font&quot;&gt;PDFDataType&lt;/font&gt;&lt;/div&gt;" style="swimlane;fontStyle=1;align=center;verticalAlign=top;childLayout=stackLayout;horizontal=1;startSize=26;horizontalStack=0;resizeParent=1;resizeParentMax=0;resizeLast=0;collapsible=1;marginBottom=0;whiteSpace=wrap;html=1;" vertex="1" parent="1">
          <mxGeometry x="300" y="180" width="160" height="100" as="geometry" />
        </mxCell>
        <mxCell id="6a4DPRetsdT_SdQBjYUN-12" value="" style="line;strokeWidth=1;fillColor=none;align=left;verticalAlign=middle;spacingTop=-1;spacingLeft=3;spacingRight=3;rotatable=0;labelPosition=right;points=[];portConstraint=eastwest;strokeColor=inherit;" vertex="1" parent="6a4DPRetsdT_SdQBjYUN-10">
          <mxGeometry y="26" width="160" height="8" as="geometry" />
        </mxCell>
        <mxCell id="6a4DPRetsdT_SdQBjYUN-13" value="&lt;div&gt;+ &lt;font color=&quot;#994c00&quot;&gt;openFile&lt;/font&gt;&lt;font color=&quot;#00cc00&quot;&gt;(&lt;/font&gt;path&lt;font color=&quot;#00cc00&quot;&gt;)&lt;/font&gt;&lt;/div&gt;&lt;div&gt;+ &lt;font color=&quot;#994c00&quot;&gt;extractData&lt;/font&gt;&lt;font color=&quot;#00cc00&quot;&gt;(&lt;/font&gt;file&lt;font color=&quot;#00cc00&quot;&gt;)&lt;/font&gt;&lt;/div&gt;&lt;div&gt;+ &lt;font color=&quot;#994c00&quot;&gt;parseData&lt;/font&gt;&lt;font color=&quot;#00cc00&quot;&gt;(&lt;/font&gt;rawData&lt;font color=&quot;#00cc00&quot;&gt;)&lt;/font&gt;&lt;/div&gt;&lt;div&gt;+ &lt;font color=&quot;#994c00&quot;&gt;closeFile&lt;/font&gt;&lt;font color=&quot;#00cc00&quot;&gt;(&lt;/font&gt;path&lt;font color=&quot;#00cc00&quot;&gt;)&lt;/font&gt;&lt;br&gt;&lt;/div&gt;" style="text;strokeColor=none;fillColor=none;align=left;verticalAlign=top;spacingLeft=4;spacingRight=4;overflow=hidden;rotatable=0;points=[[0,0.5],[1,0.5]];portConstraint=eastwest;whiteSpace=wrap;html=1;fontFamily=JetBrainsMono Nerd Font;" vertex="1" parent="6a4DPRetsdT_SdQBjYUN-10">
          <mxGeometry y="34" width="160" height="66" as="geometry" />
        </mxCell>
        <mxCell id="6a4DPRetsdT_SdQBjYUN-14" value="&lt;font face=&quot;JetBrainsMono Nerd Font&quot;&gt;extends&lt;/font&gt;" style="endArrow=block;endSize=16;endFill=0;html=1;rounded=0;entryX=0.5;entryY=1;entryDx=0;entryDy=0;exitX=0.5;exitY=0;exitDx=0;exitDy=0;" edge="1" parent="1" source="6a4DPRetsdT_SdQBjYUN-10" target="6a4DPRetsdT_SdQBjYUN-6">
          <mxGeometry x="-0.2857" width="160" relative="1" as="geometry">
            <mxPoint x="110" y="230" as="sourcePoint" />
            <mxPoint x="270" y="230" as="targetPoint" />
            <mxPoint as="offset" />
          </mxGeometry>
        </mxCell>
        <mxCell id="6a4DPRetsdT_SdQBjYUN-16" value="" style="endArrow=oval;startArrow=none;endFill=0;startFill=0;endSize=8;html=1;verticalAlign=bottom;labelBackgroundColor=none;strokeWidth=1;rounded=0;dashed=1;" edge="1" parent="1">
          <mxGeometry width="160" relative="1" as="geometry">
            <mxPoint x="200" y="170" as="sourcePoint" />
            <mxPoint x="122" y="70" as="targetPoint" />
            <Array as="points">
              <mxPoint x="200" y="70" />
            </Array>
          </mxGeometry>
        </mxCell>
        <mxCell id="6a4DPRetsdT_SdQBjYUN-17" value="&lt;p style=&quot;line-height: 120%;&quot;&gt;&lt;/p&gt;&lt;div style=&quot;font-size: 11px;&quot;&gt;file = &lt;font color=&quot;#3399ff&quot;&gt;dataType&lt;/font&gt;.&lt;font color=&quot;#994c00&quot;&gt;openFile&lt;/font&gt;&lt;font color=&quot;#00cc00&quot;&gt;(&lt;/font&gt;path&lt;font color=&quot;#00cc00&quot;&gt;)&lt;/font&gt;&lt;/div&gt;&lt;div style=&quot;font-size: 11px;&quot;&gt;rawData = &lt;font color=&quot;#3399ff&quot;&gt;dataType&lt;/font&gt;.&lt;font color=&quot;#994c00&quot;&gt;extractData&lt;/font&gt;&lt;font color=&quot;#00cc00&quot;&gt;(&lt;/font&gt;file&lt;font color=&quot;#00cc00&quot;&gt;)&lt;/font&gt;&lt;/div&gt;&lt;div style=&quot;font-size: 11px;&quot;&gt;data = &lt;font color=&quot;#3399ff&quot;&gt;dataType&lt;/font&gt;.&lt;font color=&quot;#994c00&quot;&gt;parseData&lt;/font&gt;&lt;font color=&quot;#00cc00&quot;&gt;(&lt;/font&gt;rawData&lt;font color=&quot;#00cc00&quot;&gt;)&lt;/font&gt;&lt;/div&gt;&lt;div style=&quot;font-size: 11px; line-height: 130%;&quot;&gt;analysis = &lt;font color=&quot;#994c00&quot;&gt;analyzeData&lt;/font&gt;&lt;font color=&quot;#00cc00&quot;&gt;(&lt;/font&gt;data&lt;font color=&quot;#00cc00&quot;&gt;)&lt;/font&gt;&lt;/div&gt;&lt;div style=&quot;font-size: 11px;&quot;&gt;&lt;font color=&quot;#994c00&quot;&gt;sendReport&lt;/font&gt;&lt;font color=&quot;#00cc00&quot;&gt;(&lt;/font&gt;analysis&lt;font color=&quot;#00cc00&quot;&gt;)&lt;/font&gt;&lt;/div&gt;&lt;div style=&quot;font-size: 11px;&quot;&gt;&lt;font color=&quot;#3399ff&quot;&gt;dataType&lt;/font&gt;.&lt;font color=&quot;#994c00&quot;&gt;closeFile&lt;/font&gt;&lt;font color=&quot;#00cc00&quot;&gt;(&lt;/font&gt;file&lt;font color=&quot;#00cc00&quot;&gt;)&lt;/font&gt;&lt;br style=&quot;font-size: 11px;&quot;&gt;&lt;/div&gt;&lt;p&gt;&lt;/p&gt;" style="html=1;whiteSpace=wrap;fontSize=11;fontFamily=JetBrainsMono Nerd Font;align=left;spacingLeft=2;spacingTop=-4;" vertex="1" parent="1">
          <mxGeometry x="10" y="170" width="250" height="90" as="geometry" />
        </mxCell>
      </root>
    </mxGraphModel>
  </diagram>
</mxfile>
